<svg width="72" height="20" viewBox="0 0 72 20" fill="none" xmlns="http://www.w3.org/2000/svg">
<path d="M0 16.9147V2.53274C0 1.03794 1.58003 0.0714293 2.91082 0.752182L16.608 7.7588C18.043 8.4929 18.0646 10.5361 16.6453 11.3003L2.9482 18.6757C1.61574 19.3932 0 18.4281 0 16.9147Z" fill="url(#paint0_linear_1013_5706)"/>
<mask id="path-2-outside-1_1013_5706" maskUnits="userSpaceOnUse" x="23.5" y="0.631592" width="49" height="18" fill="black">
<rect fill="white" x="23.5" y="0.631592" width="49" height="18"/>
<path d="M34.1856 6.48759C33.4976 6.63159 31.3696 6.74359 29.7696 6.59959C29.7856 7.09559 29.8016 7.60759 29.8016 8.15159C31.1136 8.03959 32.3616 8.02359 33.5136 8.16759C34.1536 8.24759 35.0336 8.61559 35.0336 9.87959C35.0336 11.1596 34.1536 11.5596 33.5136 11.6396C32.2816 11.7996 31.0016 11.7836 29.7536 11.6716C29.7056 12.5996 29.6416 13.4476 29.5616 14.1196C29.4176 15.2716 28.8416 15.9756 27.6736 15.9756C26.5056 15.9756 25.9296 15.2716 25.7856 14.1196C25.4656 11.5596 25.4656 6.95159 25.7696 4.59959C25.9296 3.35159 26.8736 2.95159 27.7536 2.83959C28.6976 2.72759 33.1296 2.77559 34.1856 2.98359C34.8256 3.11159 35.6576 3.46359 35.6576 4.72759C35.6576 6.00759 34.8256 6.35959 34.1856 6.48759ZM36.396 11.3196C36.172 8.55159 36.38 5.67159 36.508 4.50359C36.652 3.25559 37.756 2.77559 38.636 2.77559C39.516 2.77559 40.684 3.25559 40.716 4.50359C40.748 5.63959 40.62 9.51159 40.684 10.3916C40.748 11.3036 41.132 11.9596 42.092 11.9596C43.18 11.9596 43.468 11.3036 43.532 10.3916C43.596 9.51159 43.468 5.67159 43.5 4.50359C43.532 3.25559 44.716 2.77559 45.596 2.77559C46.476 2.77559 47.532 3.25559 47.692 4.50359C47.836 5.63959 48.044 8.55159 47.82 11.3196C47.596 14.1036 45.564 15.9756 42.092 15.9756C38.62 15.9756 36.62 14.0396 36.396 11.3196ZM49.2706 4.47159C49.4306 3.22359 50.2946 2.77559 51.1746 2.77559C52.0546 2.77559 52.8866 3.22359 53.0786 4.47159C53.3666 6.32759 53.4306 10.3436 53.2386 11.8796C54.2786 11.7516 55.9426 11.7836 57.2546 11.9916C58.4066 12.1676 59.0786 12.7276 59.0786 13.8956C59.0786 15.0636 58.4066 15.6876 57.2386 15.8316C55.4626 16.0556 52.9186 16.0396 51.3506 15.8316C50.1826 15.6716 49.4786 15.0636 49.2866 13.9116C48.9186 11.6876 48.9666 6.82359 49.2706 4.47159ZM60.1225 4.47159C60.2825 3.22359 61.1465 2.77559 62.0265 2.77559C62.9065 2.77559 63.7385 3.22359 63.9305 4.47159C64.2185 6.32759 64.2825 10.3436 64.0905 11.8796C65.1305 11.7516 66.7945 11.7836 68.1065 11.9916C69.2585 12.1676 69.9305 12.7276 69.9305 13.8956C69.9305 15.0636 69.2585 15.6876 68.0905 15.8316C66.3145 16.0556 63.7705 16.0396 62.2025 15.8316C61.0345 15.6716 60.3305 15.0636 60.1385 13.9116C59.7705 11.6876 59.8185 6.82359 60.1225 4.47159Z"/>
</mask>
<path d="M34.1856 6.48759C33.4976 6.63159 31.3696 6.74359 29.7696 6.59959C29.7856 7.09559 29.8016 7.60759 29.8016 8.15159C31.1136 8.03959 32.3616 8.02359 33.5136 8.16759C34.1536 8.24759 35.0336 8.61559 35.0336 9.87959C35.0336 11.1596 34.1536 11.5596 33.5136 11.6396C32.2816 11.7996 31.0016 11.7836 29.7536 11.6716C29.7056 12.5996 29.6416 13.4476 29.5616 14.1196C29.4176 15.2716 28.8416 15.9756 27.6736 15.9756C26.5056 15.9756 25.9296 15.2716 25.7856 14.1196C25.4656 11.5596 25.4656 6.95159 25.7696 4.59959C25.9296 3.35159 26.8736 2.95159 27.7536 2.83959C28.6976 2.72759 33.1296 2.77559 34.1856 2.98359C34.8256 3.11159 35.6576 3.46359 35.6576 4.72759C35.6576 6.00759 34.8256 6.35959 34.1856 6.48759ZM36.396 11.3196C36.172 8.55159 36.38 5.67159 36.508 4.50359C36.652 3.25559 37.756 2.77559 38.636 2.77559C39.516 2.77559 40.684 3.25559 40.716 4.50359C40.748 5.63959 40.62 9.51159 40.684 10.3916C40.748 11.3036 41.132 11.9596 42.092 11.9596C43.18 11.9596 43.468 11.3036 43.532 10.3916C43.596 9.51159 43.468 5.67159 43.5 4.50359C43.532 3.25559 44.716 2.77559 45.596 2.77559C46.476 2.77559 47.532 3.25559 47.692 4.50359C47.836 5.63959 48.044 8.55159 47.82 11.3196C47.596 14.1036 45.564 15.9756 42.092 15.9756C38.62 15.9756 36.62 14.0396 36.396 11.3196ZM49.2706 4.47159C49.4306 3.22359 50.2946 2.77559 51.1746 2.77559C52.0546 2.77559 52.8866 3.22359 53.0786 4.47159C53.3666 6.32759 53.4306 10.3436 53.2386 11.8796C54.2786 11.7516 55.9426 11.7836 57.2546 11.9916C58.4066 12.1676 59.0786 12.7276 59.0786 13.8956C59.0786 15.0636 58.4066 15.6876 57.2386 15.8316C55.4626 16.0556 52.9186 16.0396 51.3506 15.8316C50.1826 15.6716 49.4786 15.0636 49.2866 13.9116C48.9186 11.6876 48.9666 6.82359 49.2706 4.47159ZM60.1225 4.47159C60.2825 3.22359 61.1465 2.77559 62.0265 2.77559C62.9065 2.77559 63.7385 3.22359 63.9305 4.47159C64.2185 6.32759 64.2825 10.3436 64.0905 11.8796C65.1305 11.7516 66.7945 11.7836 68.1065 11.9916C69.2585 12.1676 69.9305 12.7276 69.9305 13.8956C69.9305 15.0636 69.2585 15.6876 68.0905 15.8316C66.3145 16.0556 63.7705 16.0396 62.2025 15.8316C61.0345 15.6716 60.3305 15.0636 60.1385 13.9116C59.7705 11.6876 59.8185 6.82359 60.1225 4.47159Z" fill="url(#paint1_linear_1013_5706)"/>
<path d="M34.1856 6.48759L33.7934 4.52643L33.7846 4.52818L33.7759 4.53001L34.1856 6.48759ZM29.7696 6.59959L29.9489 4.60764L27.6978 4.40504L27.7707 6.66407L29.7696 6.59959ZM29.8016 8.15159H27.8016V10.3296L29.9717 10.1443L29.8016 8.15159ZM33.5136 11.6396L33.2656 9.65501L33.256 9.65625L33.5136 11.6396ZM29.7536 11.6716L29.9324 9.6796L27.8636 9.49394L27.7563 11.5683L29.7536 11.6716ZM29.5616 14.1196L31.5462 14.3677L31.5476 14.356L29.5616 14.1196ZM25.7856 14.1196L27.7702 13.8715L27.7702 13.8715L25.7856 14.1196ZM25.7696 4.59959L27.7531 4.85596L27.7534 4.85392L25.7696 4.59959ZM27.7536 2.83959L27.518 0.85352L27.5095 0.854522L27.5011 0.855595L27.7536 2.83959ZM34.1856 2.98359L34.5779 1.02242L34.5721 1.02129L34.1856 2.98359ZM34.1856 6.48759L33.7759 4.53001C33.6122 4.56427 33.0551 4.62524 32.2512 4.65276C31.4853 4.67898 30.6409 4.66992 29.9489 4.60764L29.7696 6.59959L29.5903 8.59154C30.4984 8.67326 31.518 8.6802 32.388 8.65042C33.2201 8.62194 34.0711 8.55491 34.5954 8.44517L34.1856 6.48759ZM29.7696 6.59959L27.7707 6.66407C27.7867 7.16179 27.8016 7.6439 27.8016 8.15159H29.8016H31.8016C31.8016 7.57128 31.7845 7.0294 31.7686 6.53511L29.7696 6.59959ZM29.8016 8.15159L29.9717 10.1443C31.2017 10.0393 32.2996 10.0314 33.2656 10.1521L33.5136 8.16759L33.7617 6.18304C32.4237 6.01579 31.0256 6.03983 29.6315 6.15884L29.8016 8.15159ZM33.5136 8.16759L33.2656 10.1521C33.299 10.1563 33.3145 10.1621 33.3112 10.1608C33.3066 10.1591 33.2625 10.1418 33.2038 10.091C33.1385 10.0344 33.0835 9.96018 33.051 9.88519C33.0203 9.81434 33.0336 9.79823 33.0336 9.87959H35.0336H37.0336C37.0336 8.72597 36.6041 7.74475 35.8235 7.06821C35.1166 6.45561 34.3045 6.25089 33.7617 6.18304L33.5136 8.16759ZM35.0336 9.87959H33.0336C33.0336 9.96784 33.0192 9.96312 33.044 9.90441C33.0704 9.84212 33.1169 9.7759 33.1757 9.723C33.2289 9.67515 33.2709 9.65687 33.2807 9.65296C33.2889 9.64969 33.2827 9.65289 33.2656 9.65504L33.5136 11.6396L33.7617 13.6241C34.3398 13.5519 35.1533 13.3246 35.8516 12.6962C36.6132 12.0107 37.0336 11.0301 37.0336 9.87959H35.0336ZM33.5136 11.6396L33.256 9.65625C32.2097 9.79214 31.0829 9.78285 29.9324 9.6796L29.7536 11.6716L29.5749 13.6636C30.9203 13.7843 32.3536 13.807 33.7712 13.6229L33.5136 11.6396ZM29.7536 11.6716L27.7563 11.5683C27.7094 12.4743 27.6483 13.2732 27.5756 13.8832L29.5616 14.1196L31.5476 14.356C31.635 13.622 31.7018 12.7249 31.751 11.7749L29.7536 11.6716ZM29.5616 14.1196L27.5771 13.8715C27.5578 14.0259 27.5304 14.1102 27.5168 14.1437C27.5047 14.1735 27.5118 14.1434 27.5607 14.0927C27.5845 14.0679 27.6133 14.0435 27.6457 14.0222C27.678 14.0009 27.7072 13.987 27.7291 13.9786C27.7733 13.9618 27.7656 13.9756 27.6736 13.9756V15.9756V17.9756C28.6854 17.9756 29.6841 17.6545 30.4426 16.8665C31.1561 16.1252 31.4434 15.19 31.5462 14.3677L29.5616 14.1196ZM27.6736 15.9756V13.9756C27.5816 13.9756 27.574 13.9618 27.6181 13.9786C27.64 13.987 27.6692 14.0009 27.7015 14.0222C27.7339 14.0435 27.7628 14.0679 27.7866 14.0927C27.8355 14.1434 27.8425 14.1735 27.8304 14.1437C27.8168 14.1102 27.7895 14.0259 27.7702 13.8715L25.7856 14.1196L23.8011 14.3677C23.9039 15.19 24.1911 16.1252 24.9047 16.8665C25.6631 17.6545 26.6618 17.9756 27.6736 17.9756V15.9756ZM25.7856 14.1196L27.7702 13.8715C27.47 11.4703 27.4719 7.03205 27.7531 4.85596L25.7696 4.59959L23.7861 4.34322C23.4594 6.87114 23.4612 11.6489 23.8011 14.3677L25.7856 14.1196ZM25.7696 4.59959L27.7534 4.85392C27.763 4.77916 27.7752 4.7799 27.7528 4.81845C27.7297 4.85808 27.6989 4.88832 27.6789 4.90304C27.6646 4.9136 27.6768 4.90085 27.7366 4.8806C27.7971 4.8601 27.8858 4.8389 28.0061 4.82359L27.7536 2.83959L27.5011 0.855595C26.887 0.933752 26.0529 1.13189 25.3043 1.68414C24.4872 2.28694 23.9334 3.19454 23.7859 4.34526L25.7696 4.59959ZM27.7536 2.83959L27.9893 4.82566C28.3011 4.78867 29.503 4.76673 30.8923 4.79128C32.3074 4.81629 33.482 4.88343 33.7991 4.94589L34.1856 2.98359L34.5721 1.02129C33.8332 0.87575 32.2639 0.814894 30.963 0.791903C29.6363 0.768457 28.1502 0.778513 27.518 0.85352L27.7536 2.83959ZM34.1856 2.98359L33.7934 4.94475C33.8669 4.95945 33.9013 4.97216 33.9094 4.97556C33.9154 4.97809 33.8737 4.9617 33.8158 4.90901C33.7864 4.88227 33.7565 4.84942 33.7293 4.81111C33.702 4.77259 33.6824 4.7356 33.6695 4.70429C33.6425 4.6391 33.6576 4.63248 33.6576 4.72759H35.6576H37.6576C37.6576 3.60457 37.2627 2.63723 36.5075 1.95018C35.8273 1.33143 35.0425 1.11536 34.5779 1.02243L34.1856 2.98359ZM35.6576 4.72759H33.6576C33.6576 4.82979 33.6415 4.82849 33.6667 4.76699C33.6788 4.73737 33.6975 4.70135 33.7243 4.66324C33.751 4.62531 33.7806 4.59238 33.8102 4.56528C33.8686 4.5117 33.9115 4.49448 33.9071 4.49635C33.9003 4.49921 33.8669 4.51173 33.7934 4.52643L34.1856 6.48759L34.5779 8.44875C35.043 8.35573 35.8312 8.13893 36.5131 7.5139C37.2684 6.82155 37.6576 5.85046 37.6576 4.72759H35.6576ZM36.396 11.3196L34.4025 11.4809L34.4027 11.4837L36.396 11.3196ZM36.508 4.50359L34.5211 4.27434L34.5199 4.28572L36.508 4.50359ZM40.716 4.50359L38.7167 4.55486L38.7168 4.55991L40.716 4.50359ZM40.684 10.3916L42.6791 10.2516L42.6787 10.2465L40.684 10.3916ZM43.532 10.3916L41.5373 10.2465L41.5369 10.2516L43.532 10.3916ZM43.5 4.50359L45.4993 4.55836L45.4993 4.55486L43.5 4.50359ZM47.692 4.50359L49.6761 4.25208L49.6758 4.24926L47.692 4.50359ZM47.82 11.3196L45.8265 11.1583L45.8264 11.1592L47.82 11.3196ZM36.396 11.3196L38.3895 11.1583C38.1794 8.56177 38.3759 5.81849 38.4961 4.72147L36.508 4.50359L34.5199 4.28572C34.3841 5.5247 34.1646 8.54141 34.4025 11.4809L36.396 11.3196ZM36.508 4.50359L38.4948 4.73284C38.4969 4.71496 38.4989 4.71298 38.4955 4.72271C38.4921 4.7326 38.4855 4.74786 38.4746 4.76536C38.4511 4.80293 38.4272 4.82093 38.4242 4.82301C38.4237 4.82334 38.4289 4.81975 38.4412 4.81415C38.4536 4.80852 38.4711 4.80182 38.4936 4.7955C38.5416 4.78202 38.5932 4.77559 38.636 4.77559V2.77559V0.775591C37.8681 0.775591 36.961 0.978318 36.1678 1.52018C35.3204 2.09911 34.6644 3.03291 34.5212 4.27434L36.508 4.50359ZM38.636 2.77559V4.77559C38.6803 4.77559 38.7392 4.78243 38.7958 4.79804C38.8527 4.81375 38.875 4.82928 38.8696 4.8256C38.8602 4.81918 38.8139 4.78426 38.7707 4.70971C38.7498 4.67363 38.7351 4.63734 38.7261 4.60491C38.7172 4.57277 38.7166 4.55423 38.7167 4.55486L40.716 4.50359L42.7153 4.45233C42.6809 3.1101 41.9926 2.11187 41.1184 1.51759C40.3164 0.972396 39.3914 0.775591 38.636 0.775591V2.77559ZM40.716 4.50359L38.7168 4.55991C38.7312 5.06961 38.7089 6.25312 38.6883 7.51081C38.6693 8.66917 38.6489 9.98216 38.6893 10.5367L40.684 10.3916L42.6787 10.2465C42.6551 9.92103 42.6667 8.85801 42.6877 7.57637C42.7071 6.39407 42.7328 5.07357 42.7152 4.44728L40.716 4.50359ZM40.684 10.3916L38.6889 10.5316C38.7348 11.1856 38.9082 12.0446 39.4946 12.7724C40.1547 13.5916 41.1028 13.9596 42.092 13.9596V11.9596V9.95959C42.0803 9.95959 42.1586 9.95808 42.2821 10.0125C42.4132 10.0702 42.5277 10.1614 42.6094 10.2627C42.6839 10.3552 42.7042 10.4222 42.7029 10.4184C42.7012 10.4129 42.6869 10.3624 42.6791 10.2516L40.684 10.3916ZM42.092 11.9596V13.9596C43.0687 13.9596 44.0799 13.6397 44.7753 12.7447C45.369 11.9805 45.4882 11.0857 45.5271 10.5316L43.532 10.3916L41.5369 10.2516C41.5264 10.4009 41.5109 10.4683 41.5067 10.4833C41.5035 10.495 41.5252 10.4083 41.6167 10.2905C41.7196 10.158 41.8575 10.0554 41.9949 9.9979C42.1153 9.94752 42.1684 9.95959 42.092 9.95959V11.9596ZM43.532 10.3916L45.5267 10.5367C45.5671 9.9821 45.5467 8.67713 45.5277 7.5227C45.5071 6.27037 45.4848 5.08509 45.4992 4.55836L43.5 4.50359L41.5008 4.44882C41.4832 5.09009 41.5089 6.40881 41.5283 7.58848C41.5493 8.86606 41.5609 9.92108 41.5373 10.2465L43.532 10.3916ZM43.5 4.50359L45.4993 4.55486C45.4993 4.55645 45.4984 4.57698 45.4889 4.61081C45.4794 4.64489 45.464 4.68212 45.4427 4.71848C45.3988 4.79326 45.3531 4.82648 45.3469 4.83069C45.3444 4.83233 45.3703 4.81543 45.4306 4.79891C45.4905 4.78248 45.5515 4.77559 45.596 4.77559V2.77559V0.775591C44.8417 0.775591 43.9164 0.971782 43.1131 1.51249C42.2382 2.10145 41.5354 3.09882 41.5007 4.45233L43.5 4.50359ZM45.596 2.77559V4.77559C45.6381 4.77559 45.6833 4.78183 45.7217 4.79282C45.7595 4.80364 45.7722 4.81363 45.7665 4.80966C45.7573 4.80324 45.7351 4.7841 45.7159 4.7528C45.7073 4.73871 45.7033 4.72854 45.7022 4.72549C45.7012 4.72265 45.7049 4.73215 45.7082 4.75792L47.692 4.50359L49.6758 4.24926C49.5218 3.04799 48.9007 2.12143 48.0615 1.53352C47.2728 0.981014 46.3689 0.775591 45.596 0.775591V2.77559ZM47.692 4.50359L45.7079 4.7551C45.8387 5.78752 46.037 8.55771 45.8265 11.1583L47.82 11.3196L49.8135 11.4809C50.051 8.54548 49.8333 5.49167 49.6761 4.25208L47.692 4.50359ZM47.82 11.3196L45.8264 11.1592C45.752 12.085 45.3992 12.7298 44.8865 13.1611C44.3573 13.6063 43.4738 13.9756 42.092 13.9756V15.9756V17.9756C44.1822 17.9756 46.0507 17.4089 47.4615 16.2221C48.8888 15.0214 49.664 13.3382 49.8136 11.48L47.82 11.3196ZM42.092 15.9756V13.9756C40.7271 13.9756 39.8535 13.5996 39.3271 13.1486C38.8104 12.7061 38.4631 12.0527 38.3893 11.1554L36.396 11.3196L34.4027 11.4837C34.5529 13.3065 35.3176 14.9811 36.7249 16.1866C38.1225 17.3836 39.9849 17.9756 42.092 17.9756V15.9756ZM49.2706 4.47159L51.2541 4.72796L51.2544 4.72592L49.2706 4.47159ZM53.0786 4.47159L51.1019 4.77571L51.1023 4.77827L53.0786 4.47159ZM53.2386 11.8796L51.2541 11.6315L50.9357 14.1781L53.4829 13.8646L53.2386 11.8796ZM57.2546 11.9916L56.9415 13.967L56.9526 13.9687L57.2546 11.9916ZM57.2386 15.8316L56.9939 13.8466L56.9884 13.8473L57.2386 15.8316ZM51.3506 15.8316L51.0792 17.8131L51.0876 17.8142L51.3506 15.8316ZM49.2866 13.9116L47.3135 14.2381L47.3138 14.2404L49.2866 13.9116ZM49.2706 4.47159L51.2544 4.72592C51.2673 4.62528 51.2859 4.60408 51.2724 4.62914C51.2661 4.64083 51.2547 4.65886 51.237 4.67976C51.2193 4.70063 51.1989 4.72002 51.1773 4.73675C51.1331 4.77101 51.1003 4.78159 51.0973 4.78245C51.0967 4.78263 51.1215 4.77559 51.1746 4.77559V2.77559V0.775591C50.4139 0.775591 49.5104 0.968344 48.7279 1.57443C47.9074 2.20994 47.4247 3.14228 47.2869 4.21726L49.2706 4.47159ZM51.1746 2.77559V4.77559C51.2274 4.77559 51.2477 4.78254 51.241 4.78055C51.2315 4.7777 51.1954 4.76464 51.151 4.72982C51.1297 4.71309 51.1109 4.69476 51.0955 4.67657C51.0802 4.65842 51.0717 4.6445 51.0685 4.6385C51.0614 4.62561 51.0842 4.66076 51.1019 4.77571L53.0786 4.47159L55.0554 4.16748C54.8955 3.12818 54.4247 2.21335 53.6182 1.58136C52.8395 0.97111 51.9408 0.775591 51.1746 0.775591V2.77559ZM53.0786 4.47159L51.1023 4.77827C51.2252 5.57073 51.3115 6.93112 51.339 8.3348C51.3667 9.74822 51.3311 11.015 51.2541 11.6315L53.2386 11.8796L55.2232 12.1277C55.3381 11.2081 55.3665 9.69897 55.3382 8.25638C55.3098 6.80406 55.22 5.22845 55.055 4.16492L53.0786 4.47159ZM53.2386 11.8796L53.4829 13.8646C54.3169 13.762 55.7921 13.7847 56.9415 13.9669L57.2546 11.9916L57.5678 10.0163C56.0931 9.78247 54.2404 9.74121 52.9943 9.89457L53.2386 11.8796ZM57.2546 11.9916L56.9526 13.9687C57.1177 13.9939 57.2074 14.0245 57.2442 14.0401C57.2769 14.054 57.2458 14.0465 57.1936 13.9949C57.1681 13.9698 57.1433 13.9397 57.1219 13.9062C57.1005 13.873 57.0871 13.8435 57.0793 13.8225C57.0639 13.7808 57.0786 13.7937 57.0786 13.8956H59.0786H61.0786C61.0786 12.9054 60.7791 11.9138 60.0037 11.1483C59.2768 10.4307 58.3552 10.1365 57.5567 10.0145L57.2546 11.9916ZM59.0786 13.8956H57.0786C57.0786 13.9973 57.064 14.0199 57.0743 13.9913C57.0795 13.9769 57.0896 13.9536 57.107 13.9257C57.1246 13.8975 57.1458 13.8706 57.1691 13.8468C57.1922 13.8233 57.2127 13.8076 57.2264 13.7985C57.2397 13.7896 57.2437 13.7889 57.2337 13.7932C57.2115 13.8026 57.1386 13.8288 56.9939 13.8466L57.2386 15.8316L57.4833 17.8166C58.349 17.7098 59.2926 17.3939 60.0242 16.6484C60.7844 15.8736 61.0786 14.8781 61.0786 13.8956H59.0786ZM57.2386 15.8316L56.9884 13.8473C55.3793 14.0503 53.0078 14.0339 51.6136 13.849L51.3506 15.8316L51.0876 17.8142C52.8294 18.0453 55.546 18.0609 57.4889 17.8159L57.2386 15.8316ZM51.3506 15.8316L51.6221 13.8501C51.3154 13.8081 51.2667 13.7351 51.3014 13.7668C51.3158 13.78 51.3192 13.7896 51.3131 13.7774C51.305 13.7613 51.2796 13.704 51.2594 13.5828L49.2866 13.9116L47.3138 14.2404C47.4677 15.1635 47.8628 16.0435 48.6039 16.7204C49.3306 17.3841 50.2178 17.6951 51.0792 17.8131L51.3506 15.8316ZM49.2866 13.9116L51.2598 13.5851C50.9319 11.6033 50.9678 6.94318 51.2541 4.72796L49.2706 4.47159L47.2871 4.21522C46.9654 6.70401 46.9054 11.7719 47.3135 14.2381L49.2866 13.9116ZM60.1225 4.47159L62.106 4.72796L62.1063 4.72592L60.1225 4.47159ZM63.9305 4.47159L61.9538 4.77571L61.9542 4.77827L63.9305 4.47159ZM64.0905 11.8796L62.1059 11.6315L61.7876 14.1781L64.3348 13.8646L64.0905 11.8796ZM68.1065 11.9916L67.7933 13.967L67.8045 13.9687L68.1065 11.9916ZM68.0905 15.8316L67.8458 13.8466L67.8402 13.8473L68.0905 15.8316ZM62.2025 15.8316L61.9311 17.8131L61.9395 17.8142L62.2025 15.8316ZM60.1385 13.9116L58.1653 14.2381L58.1657 14.2404L60.1385 13.9116ZM60.1225 4.47159L62.1063 4.72592C62.1192 4.62528 62.1377 4.60408 62.1242 4.62914C62.1179 4.64083 62.1066 4.65886 62.0889 4.67976C62.0712 4.70063 62.0508 4.72002 62.0292 4.73675C61.985 4.77101 61.9521 4.78159 61.9492 4.78245C61.9486 4.78263 61.9734 4.77559 62.0265 4.77559V2.77559V0.775591C61.2657 0.775591 60.3623 0.968344 59.5798 1.57443C58.7593 2.20994 58.2766 3.14228 58.1387 4.21726L60.1225 4.47159ZM62.0265 2.77559V4.77559C62.0792 4.77559 62.0995 4.78254 62.0929 4.78055C62.0834 4.7777 62.0473 4.76464 62.0029 4.72982C61.9815 4.71309 61.9627 4.69476 61.9474 4.67657C61.9321 4.65842 61.9236 4.6445 61.9203 4.6385C61.9133 4.62561 61.9361 4.66076 61.9538 4.77571L63.9305 4.47159L65.9072 4.16748C65.7474 3.12818 65.2766 2.21335 64.4701 1.58136C63.6914 0.97111 62.7927 0.775591 62.0265 0.775591V2.77559ZM63.9305 4.47159L61.9542 4.77827C62.0771 5.57073 62.1634 6.93112 62.1909 8.3348C62.2186 9.74822 62.183 11.015 62.1059 11.6315L64.0905 11.8796L66.0751 12.1277C66.19 11.2081 66.2184 9.69897 66.1901 8.25638C66.1616 6.80406 66.0719 5.22845 65.9068 4.16492L63.9305 4.47159ZM64.0905 11.8796L64.3348 13.8646C65.1688 13.762 66.644 13.7847 67.7933 13.9669L68.1065 11.9916L68.4197 10.0163C66.945 9.78247 65.0922 9.74121 63.8462 9.89457L64.0905 11.8796ZM68.1065 11.9916L67.8045 13.9687C67.9696 13.9939 68.0593 14.0245 68.0961 14.0401C68.1288 14.054 68.0977 14.0465 68.0454 13.9949C68.02 13.9698 67.9952 13.9397 67.9738 13.9062C67.9524 13.873 67.9389 13.8435 67.9312 13.8225C67.9158 13.7808 67.9305 13.7937 67.9305 13.8956H69.9305H71.9305C71.9305 12.9054 71.631 11.9138 70.8556 11.1483C70.1287 10.4307 69.2071 10.1365 68.4086 10.0145L68.1065 11.9916ZM69.9305 13.8956H67.9305C67.9305 13.9973 67.9158 14.0199 67.9261 13.9913C67.9314 13.9769 67.9415 13.9536 67.9589 13.9257C67.9765 13.8975 67.9977 13.8706 68.021 13.8468C68.0441 13.8233 68.0646 13.8076 68.0783 13.7985C68.0916 13.7896 68.0955 13.7889 68.0856 13.7932C68.0634 13.8026 67.9905 13.8288 67.8458 13.8466L68.0905 15.8316L68.3352 17.8166C69.2009 17.7098 70.1444 17.3939 70.876 16.6484C71.6363 15.8736 71.9305 14.8781 71.9305 13.8956H69.9305ZM68.0905 15.8316L67.8402 13.8473C66.2312 14.0503 63.8597 14.0339 62.4655 13.849L62.2025 15.8316L61.9395 17.8142C63.6813 18.0453 66.3978 18.0609 68.3408 17.8159L68.0905 15.8316ZM62.2025 15.8316L62.4739 13.8501C62.1673 13.8081 62.1185 13.7351 62.1532 13.7668C62.1677 13.78 62.1711 13.7896 62.165 13.7774C62.1569 13.7613 62.1315 13.704 62.1113 13.5828L60.1385 13.9116L58.1657 14.2404C58.3196 15.1635 58.7146 16.0435 59.4558 16.7204C60.1825 17.3841 61.0697 17.6951 61.9311 17.8131L62.2025 15.8316ZM60.1385 13.9116L62.1117 13.5851C61.7837 11.6033 61.8197 6.94318 62.106 4.72796L60.1225 4.47159L58.139 4.21522C57.8173 6.70401 57.7573 11.7719 58.1653 14.2381L60.1385 13.9116Z" fill="#8F7D00" mask="url(#path-2-outside-1_1013_5706)"/>
<defs>
<linearGradient id="paint0_linear_1013_5706" x1="2.5" y1="0.5" x2="2.5" y2="18.5" gradientUnits="userSpaceOnUse">
<stop offset="0.201923" stop-color="#8F7D00"/>
<stop offset="1" stop-color="#574C00"/>
</linearGradient>
<linearGradient id="paint1_linear_1013_5706" x1="37.3773" y1="14.3191" x2="37.3773" y2="-0.555908" gradientUnits="userSpaceOnUse">
<stop stop-color="#FFF18D"/>
<stop offset="1" stop-color="white"/>
</linearGradient>
</defs>
</svg>
