<svg width="92" height="21" viewBox="0 0 92 21" fill="none" xmlns="http://www.w3.org/2000/svg">
<path d="M0.100098 17.4147V3.03274C0.100098 1.53794 1.68013 0.571429 3.01092 1.25218L16.7081 8.2588C18.1431 8.9929 18.1647 11.0361 16.7454 11.8003L3.0483 19.1757C1.71584 19.8932 0.100098 18.9281 0.100098 17.4147Z" fill="url(#paint0_linear_1013_5701)"/>
<mask id="path-2-outside-1_1013_5701" maskUnits="userSpaceOnUse" x="23" y="1.5" width="69" height="18" fill="black">
<rect fill="white" x="23" y="1.5" width="69" height="18"/>
<path d="M30.2907 6.988C29.7307 6.988 29.5387 7.26 29.5387 7.58C29.5387 7.948 29.8907 8.124 30.3227 8.236C31.2507 8.46 32.1627 8.732 33.0747 9.1C34.8347 9.804 35.8587 10.844 35.8587 12.844C35.8587 15.02 34.2107 16.796 31.2507 16.844C29.4107 16.876 27.4587 16.556 26.0187 15.532C25.1227 14.892 24.7867 13.98 25.3627 13.084C25.9387 12.172 26.7387 12.044 27.7947 12.572C28.4987 12.924 29.7467 13.5 30.6107 13.5C31.0587 13.5 31.5547 13.42 31.5547 12.956C31.5547 12.524 31.1707 12.38 30.6747 12.268C30.0827 12.14 29.2507 11.916 28.6107 11.66C26.3867 10.78 25.3147 9.484 25.3147 7.628C25.3147 5.548 26.8027 3.644 30.0667 3.644C32.0827 3.644 33.6827 4.268 34.8507 5.1C35.6507 5.676 35.9707 6.492 35.4587 7.404C34.9467 8.332 33.9707 8.46 33.0107 7.916C32.3867 7.564 31.2187 6.988 30.2907 6.988ZM37.2774 5.34C37.4374 4.092 38.3174 3.644 39.1974 3.644C40.0774 3.644 40.9574 4.092 41.1174 5.34C41.4214 7.692 41.4214 12.396 41.1014 14.956C40.9574 16.108 40.3654 16.844 39.1974 16.844C38.0294 16.844 37.4374 16.108 37.2934 14.956C36.9734 12.396 36.9734 7.692 37.2774 5.34ZM42.8481 5.372C43.0081 4.124 43.6961 3.644 44.5761 3.644C45.3921 3.644 45.8881 4.108 46.3841 4.684C47.1841 5.628 48.9761 7.964 49.8401 9.58H49.9201C49.8881 7.788 49.9041 6.204 50.0161 5.372C50.1761 4.124 50.9761 3.644 51.8561 3.644C52.7361 3.644 53.5361 4.124 53.7121 5.372C54.0321 7.628 54.0161 12.428 53.6961 14.988C53.5521 16.14 53.1201 16.828 52.1441 16.844C51.3281 16.86 50.9921 16.684 50.2401 15.932C49.5521 15.244 47.8721 13.068 46.7041 10.94H46.6241C46.6721 12.7 46.6241 14.124 46.5121 14.988C46.3681 16.14 45.8241 16.844 44.6561 16.844C43.4881 16.844 43.0081 16.14 42.8641 14.988C42.5441 12.428 42.5441 7.724 42.8481 5.372ZM55.0659 10.252C55.0659 5.868 57.6899 3.644 61.6899 3.644C63.0339 3.644 64.3619 3.916 65.4819 4.732C66.1059 5.18 66.4579 6.06 65.9619 7.02C65.3059 8.284 64.2499 8.316 63.4659 7.98C63.0179 7.788 62.4419 7.532 61.6259 7.532C60.2339 7.532 59.0979 8.364 59.0979 10.316C59.0979 12.268 60.3139 13.068 61.6259 13.068C62.5379 13.068 63.1779 12.812 63.5299 12.428V11.852C63.3379 11.868 62.8579 11.852 62.6019 11.82C61.6739 11.708 61.2259 11.212 61.2259 10.428C61.2259 9.564 61.7219 9.116 62.6499 9.02C63.5939 8.924 64.8259 8.956 65.6259 9.084C66.4899 9.228 66.9859 9.676 67.0499 10.636C67.1459 12.124 67.0339 13.852 66.5219 14.62C65.8179 15.676 64.0259 16.844 61.7539 16.844C57.7539 16.844 55.0659 14.636 55.0659 10.252ZM68.4428 5.34C68.6028 4.092 69.4668 3.644 70.3468 3.644C71.2268 3.644 72.0588 4.092 72.2508 5.34C72.5388 7.196 72.6028 11.212 72.4108 12.748C73.4508 12.62 75.1148 12.652 76.4268 12.86C77.5788 13.036 78.2508 13.596 78.2508 14.764C78.2508 15.932 77.5788 16.556 76.4108 16.7C74.6348 16.924 72.0908 16.908 70.5228 16.7C69.3548 16.54 68.6508 15.932 68.4588 14.78C68.0908 12.556 68.1388 7.692 68.4428 5.34ZM87.7427 13.196C88.3827 13.292 89.1667 13.612 89.1667 14.876C89.1667 16.156 88.3667 16.508 87.7267 16.636C86.2867 16.908 82.6707 16.892 81.2627 16.764C80.0947 16.652 79.4867 15.98 79.2947 14.828C78.9427 12.748 79.0067 7.804 79.2787 5.628C79.4547 4.236 80.2707 3.82 81.2627 3.708C82.0947 3.612 86.5107 3.612 87.6947 3.852C88.3347 3.98 89.1667 4.268 89.1667 5.532C89.1667 6.812 88.3347 7.148 87.6947 7.276C86.5907 7.5 84.2067 7.5 83.1507 7.372L83.1827 8.508C84.4627 8.412 85.6627 8.396 86.8467 8.508C87.4867 8.572 88.3827 8.924 88.3827 10.188C88.3827 11.468 87.4867 11.884 86.8467 11.948C85.5827 12.076 84.3827 12.076 83.1667 11.98L83.1187 13.132C83.9347 13.004 86.5587 13.004 87.7427 13.196Z"/>
</mask>
<path d="M30.2907 6.988C29.7307 6.988 29.5387 7.26 29.5387 7.58C29.5387 7.948 29.8907 8.124 30.3227 8.236C31.2507 8.46 32.1627 8.732 33.0747 9.1C34.8347 9.804 35.8587 10.844 35.8587 12.844C35.8587 15.02 34.2107 16.796 31.2507 16.844C29.4107 16.876 27.4587 16.556 26.0187 15.532C25.1227 14.892 24.7867 13.98 25.3627 13.084C25.9387 12.172 26.7387 12.044 27.7947 12.572C28.4987 12.924 29.7467 13.5 30.6107 13.5C31.0587 13.5 31.5547 13.42 31.5547 12.956C31.5547 12.524 31.1707 12.38 30.6747 12.268C30.0827 12.14 29.2507 11.916 28.6107 11.66C26.3867 10.78 25.3147 9.484 25.3147 7.628C25.3147 5.548 26.8027 3.644 30.0667 3.644C32.0827 3.644 33.6827 4.268 34.8507 5.1C35.6507 5.676 35.9707 6.492 35.4587 7.404C34.9467 8.332 33.9707 8.46 33.0107 7.916C32.3867 7.564 31.2187 6.988 30.2907 6.988ZM37.2774 5.34C37.4374 4.092 38.3174 3.644 39.1974 3.644C40.0774 3.644 40.9574 4.092 41.1174 5.34C41.4214 7.692 41.4214 12.396 41.1014 14.956C40.9574 16.108 40.3654 16.844 39.1974 16.844C38.0294 16.844 37.4374 16.108 37.2934 14.956C36.9734 12.396 36.9734 7.692 37.2774 5.34ZM42.8481 5.372C43.0081 4.124 43.6961 3.644 44.5761 3.644C45.3921 3.644 45.8881 4.108 46.3841 4.684C47.1841 5.628 48.9761 7.964 49.8401 9.58H49.9201C49.8881 7.788 49.9041 6.204 50.0161 5.372C50.1761 4.124 50.9761 3.644 51.8561 3.644C52.7361 3.644 53.5361 4.124 53.7121 5.372C54.0321 7.628 54.0161 12.428 53.6961 14.988C53.5521 16.14 53.1201 16.828 52.1441 16.844C51.3281 16.86 50.9921 16.684 50.2401 15.932C49.5521 15.244 47.8721 13.068 46.7041 10.94H46.6241C46.6721 12.7 46.6241 14.124 46.5121 14.988C46.3681 16.14 45.8241 16.844 44.6561 16.844C43.4881 16.844 43.0081 16.14 42.8641 14.988C42.5441 12.428 42.5441 7.724 42.8481 5.372ZM55.0659 10.252C55.0659 5.868 57.6899 3.644 61.6899 3.644C63.0339 3.644 64.3619 3.916 65.4819 4.732C66.1059 5.18 66.4579 6.06 65.9619 7.02C65.3059 8.284 64.2499 8.316 63.4659 7.98C63.0179 7.788 62.4419 7.532 61.6259 7.532C60.2339 7.532 59.0979 8.364 59.0979 10.316C59.0979 12.268 60.3139 13.068 61.6259 13.068C62.5379 13.068 63.1779 12.812 63.5299 12.428V11.852C63.3379 11.868 62.8579 11.852 62.6019 11.82C61.6739 11.708 61.2259 11.212 61.2259 10.428C61.2259 9.564 61.7219 9.116 62.6499 9.02C63.5939 8.924 64.8259 8.956 65.6259 9.084C66.4899 9.228 66.9859 9.676 67.0499 10.636C67.1459 12.124 67.0339 13.852 66.5219 14.62C65.8179 15.676 64.0259 16.844 61.7539 16.844C57.7539 16.844 55.0659 14.636 55.0659 10.252ZM68.4428 5.34C68.6028 4.092 69.4668 3.644 70.3468 3.644C71.2268 3.644 72.0588 4.092 72.2508 5.34C72.5388 7.196 72.6028 11.212 72.4108 12.748C73.4508 12.62 75.1148 12.652 76.4268 12.86C77.5788 13.036 78.2508 13.596 78.2508 14.764C78.2508 15.932 77.5788 16.556 76.4108 16.7C74.6348 16.924 72.0908 16.908 70.5228 16.7C69.3548 16.54 68.6508 15.932 68.4588 14.78C68.0908 12.556 68.1388 7.692 68.4428 5.34ZM87.7427 13.196C88.3827 13.292 89.1667 13.612 89.1667 14.876C89.1667 16.156 88.3667 16.508 87.7267 16.636C86.2867 16.908 82.6707 16.892 81.2627 16.764C80.0947 16.652 79.4867 15.98 79.2947 14.828C78.9427 12.748 79.0067 7.804 79.2787 5.628C79.4547 4.236 80.2707 3.82 81.2627 3.708C82.0947 3.612 86.5107 3.612 87.6947 3.852C88.3347 3.98 89.1667 4.268 89.1667 5.532C89.1667 6.812 88.3347 7.148 87.6947 7.276C86.5907 7.5 84.2067 7.5 83.1507 7.372L83.1827 8.508C84.4627 8.412 85.6627 8.396 86.8467 8.508C87.4867 8.572 88.3827 8.924 88.3827 10.188C88.3827 11.468 87.4867 11.884 86.8467 11.948C85.5827 12.076 84.3827 12.076 83.1667 11.98L83.1187 13.132C83.9347 13.004 86.5587 13.004 87.7427 13.196Z" fill="url(#paint1_linear_1013_5701)"/>
<path d="M30.3227 8.236L29.8208 10.172L29.8371 10.1762L29.8534 10.1802L30.3227 8.236ZM33.0747 9.1L32.3263 10.9547L32.3319 10.957L33.0747 9.1ZM31.2507 16.844L31.2183 14.8443L31.2159 14.8443L31.2507 16.844ZM26.0187 15.532L24.8562 17.1595L24.8596 17.1619L26.0187 15.532ZM25.3627 13.084L27.045 14.1655L27.0494 14.1588L27.0537 14.152L25.3627 13.084ZM27.7947 12.572L28.6891 10.7831L28.6891 10.7831L27.7947 12.572ZM30.6747 12.268L31.1152 10.3171L31.1063 10.3151L31.0974 10.3132L30.6747 12.268ZM28.6107 11.66L29.3535 9.80303L29.3465 9.80029L28.6107 11.66ZM34.8507 5.1L36.0193 3.47691L36.0111 3.47103L34.8507 5.1ZM35.4587 7.404L33.7147 6.42493L33.7111 6.43137L33.7075 6.43785L35.4587 7.404ZM33.0107 7.916L33.9967 6.17595L33.9933 6.17404L33.0107 7.916ZM30.2907 6.988V4.988C29.7129 4.988 28.9671 5.12788 28.3544 5.68865C27.717 6.272 27.5387 7.01976 27.5387 7.58H29.5387H31.5387C31.5387 7.82024 31.4564 8.272 31.055 8.63935C30.6783 8.98412 30.3085 8.988 30.2907 8.988V6.988ZM29.5387 7.58H27.5387C27.5387 8.53581 28.0495 9.22392 28.5869 9.61753C29.0406 9.94976 29.5346 10.0978 29.8208 10.172L30.3227 8.236L30.8246 6.30001C30.6788 6.2622 30.7808 6.26624 30.9504 6.39047C31.0538 6.46614 31.2104 6.60687 31.3396 6.83441C31.4759 7.07445 31.5387 7.33624 31.5387 7.58H29.5387ZM30.3227 8.236L29.8534 10.1802C30.7127 10.3876 31.5271 10.6322 32.3263 10.9547L33.0747 9.1L33.8231 7.2453C32.7982 6.83176 31.7887 6.53241 30.792 6.29184L30.3227 8.236ZM33.0747 9.1L32.3319 10.957C33.0419 11.2409 33.3855 11.5099 33.5619 11.7316C33.7068 11.9136 33.8587 12.2103 33.8587 12.844H35.8587H37.8587C37.8587 11.4777 37.4986 10.2544 36.6915 9.24044C35.9159 8.26606 34.8675 7.66305 33.8175 7.24305L33.0747 9.1ZM35.8587 12.844H33.8587C33.8587 13.4076 33.6557 13.8515 33.308 14.1725C32.9526 14.5007 32.3035 14.8267 31.2183 14.8443L31.2507 16.844L31.2831 18.8437C33.1579 18.8133 34.8128 18.2273 36.0214 17.1115C37.2376 15.9885 37.8587 14.4564 37.8587 12.844H35.8587ZM31.2507 16.844L31.2159 14.8443C29.562 14.8731 28.1141 14.568 27.1777 13.9021L26.0187 15.532L24.8596 17.1619C26.8032 18.544 29.2594 18.8789 31.2855 18.8437L31.2507 16.844ZM26.0187 15.532L27.1812 13.9045C27.0896 13.8391 27.046 13.7905 27.0314 13.7719C27.0177 13.7544 27.0383 13.775 27.0568 13.8377C27.0768 13.9055 27.0841 13.989 27.071 14.071C27.0583 14.1504 27.0339 14.1829 27.045 14.1655L25.3627 13.084L23.6803 12.0025C23.1051 12.8972 22.9183 13.9465 23.2205 14.9703C23.5051 15.9342 24.1572 16.6602 24.8562 17.1595L26.0187 15.532ZM25.3627 13.084L27.0537 14.152C27.099 14.0802 27.1055 14.0928 27.0526 14.1333C27.0255 14.1541 26.9871 14.1787 26.938 14.2011C26.8887 14.2237 26.8372 14.24 26.7872 14.2499C26.6847 14.2702 26.6285 14.2561 26.6458 14.2597C26.6684 14.2644 26.7504 14.2859 26.9003 14.3609L27.7947 12.572L28.6891 10.7831C27.9574 10.4173 27.0217 10.1258 26.0102 10.3261C24.9295 10.5401 24.1679 11.2303 23.6717 12.016L25.3627 13.084ZM27.7947 12.572L26.9003 14.3609C27.2778 14.5496 27.8405 14.8187 28.4485 15.0437C29.0114 15.252 29.8122 15.5 30.6107 15.5V13.5V11.5C30.6116 11.5 30.5912 11.4999 30.546 11.4936C30.5016 11.4875 30.4429 11.4766 30.3691 11.4591C30.219 11.4233 30.0394 11.3673 29.8368 11.2923C29.4288 11.1413 29.0156 10.9464 28.6891 10.7831L27.7947 12.572ZM30.6107 13.5V15.5C30.8836 15.5 31.4687 15.4872 32.0459 15.2371C32.3646 15.099 32.7639 14.8534 33.0814 14.4216C33.4143 13.9689 33.5547 13.4506 33.5547 12.956H31.5547H29.5547C29.5547 12.6934 29.6331 12.3591 29.859 12.0519C30.0695 11.7656 30.3168 11.627 30.4555 11.5669C30.5889 11.5091 30.6785 11.4984 30.6802 11.4982C30.6885 11.497 30.6689 11.5 30.6107 11.5V13.5ZM31.5547 12.956H33.5547C33.5547 11.9845 33.0477 11.2475 32.4003 10.8214C31.9079 10.4973 31.3628 10.373 31.1152 10.3171L30.6747 12.268L30.2342 14.2189C30.3299 14.2405 30.3685 14.2524 30.3769 14.2553C30.3884 14.2592 30.3122 14.2357 30.2011 14.1626C30.0805 14.0832 29.8986 13.9316 29.7536 13.6798C29.6036 13.4191 29.5547 13.1578 29.5547 12.956H31.5547ZM30.6747 12.268L31.0974 10.3132C30.5658 10.1982 29.8518 10.0024 29.3535 9.80305L28.6107 11.66L27.8679 13.517C28.6496 13.8296 29.5996 14.0818 30.252 14.2228L30.6747 12.268ZM28.6107 11.66L29.3465 9.80029C28.4269 9.43641 27.9347 9.05837 27.6754 8.74201C27.4479 8.46453 27.3147 8.13533 27.3147 7.628H25.3147H23.3147C23.3147 8.97667 23.7175 10.2235 24.582 11.278C25.4147 12.2936 26.5705 13.0036 27.8748 13.5197L28.6107 11.66ZM25.3147 7.628H27.3147C27.3147 7.07042 27.5067 6.62444 27.8393 6.31065C28.1702 5.99835 28.8269 5.644 30.0667 5.644V3.644V1.644C28.0425 1.644 26.3231 2.24165 25.0941 3.40135C23.8666 4.55956 23.3147 6.10558 23.3147 7.628H25.3147ZM30.0667 3.644V5.644C31.6515 5.644 32.8485 6.12931 33.6903 6.72897L34.8507 5.1L36.0111 3.47103C34.5169 2.40669 32.5139 1.644 30.0667 1.644V3.644ZM34.8507 5.1L33.6821 6.72307C33.8364 6.83415 33.7746 6.84706 33.7297 6.69618C33.7065 6.61808 33.7014 6.53595 33.711 6.46682C33.7199 6.40182 33.7363 6.3864 33.7147 6.42493L35.4587 7.404L37.2027 8.38307C37.6856 7.52275 37.8547 6.53411 37.5637 5.55582C37.2868 4.62493 36.665 3.94185 36.0193 3.47693L34.8507 5.1ZM35.4587 7.404L33.7075 6.43785C33.7013 6.44917 33.7234 6.40591 33.7945 6.35254C33.8678 6.29751 33.9543 6.26116 34.0352 6.24605C34.188 6.2175 34.1834 6.28175 33.9967 6.17596L33.0107 7.916L32.0247 9.65604C32.798 10.0942 33.7614 10.3665 34.7702 10.178C35.8374 9.97846 36.6916 9.3094 37.2098 8.37015L35.4587 7.404ZM33.0107 7.916L33.9933 6.17404C33.6311 5.96974 33.0922 5.6891 32.4862 5.4547C31.9113 5.2323 31.1175 4.988 30.2907 4.988V6.988V8.988C30.3918 8.988 30.646 9.0317 31.0431 9.1853C31.4092 9.3269 31.7662 9.51026 32.028 9.65796L33.0107 7.916ZM37.2774 5.34L39.2609 5.59637L39.2612 5.59433L37.2774 5.34ZM41.1174 5.34L39.1337 5.59433L39.1339 5.59637L41.1174 5.34ZM41.1014 14.956L39.1169 14.7079L39.1169 14.7079L41.1014 14.956ZM37.2934 14.956L39.278 14.7079L39.278 14.7079L37.2934 14.956ZM37.2774 5.34L39.2612 5.59433C39.2735 5.49829 39.2912 5.4802 39.2766 5.50691C39.2698 5.51926 39.2583 5.53727 39.2408 5.55764C39.2233 5.57795 39.2037 5.59637 39.1833 5.61194C39.1419 5.64366 39.1128 5.65228 39.1139 5.65197C39.117 5.65105 39.1443 5.644 39.1974 5.644V3.644V1.644C38.4378 1.644 37.5351 1.83605 36.7515 2.43606C35.9274 3.06711 35.433 3.99921 35.2937 5.08567L37.2774 5.34ZM39.1974 3.644V5.644C39.2506 5.644 39.2779 5.65105 39.281 5.65197C39.282 5.65228 39.253 5.64366 39.2115 5.61194C39.1912 5.59637 39.1715 5.57795 39.1541 5.55764C39.1366 5.53727 39.125 5.51926 39.1183 5.50691C39.1037 5.4802 39.1214 5.49829 39.1337 5.59433L41.1174 5.34L43.1012 5.08567C42.9619 3.99921 42.4675 3.06711 41.6433 2.43606C40.8598 1.83605 39.957 1.644 39.1974 1.644V3.644ZM41.1174 5.34L39.1339 5.59637C39.4152 7.77249 39.417 12.3068 39.1169 14.7079L41.1014 14.956L43.086 15.2041C43.4258 12.4852 43.4277 7.6115 43.1009 5.08363L41.1174 5.34ZM41.1014 14.956L39.1169 14.7079C39.0981 14.8584 39.0705 14.9448 39.0549 14.9832C39.0405 15.0186 39.0431 14.9969 39.0843 14.9536C39.1045 14.9323 39.1298 14.9105 39.1592 14.8907C39.1886 14.8709 39.216 14.8574 39.2377 14.8489C39.2823 14.8314 39.2792 14.844 39.1974 14.844V16.844V18.844C40.2339 18.844 41.232 18.4995 41.9826 17.7104C42.6882 16.9686 42.9821 16.0355 43.086 15.2041L41.1014 14.956ZM39.1974 16.844V14.844C39.1157 14.844 39.1126 14.8314 39.1572 14.8489C39.1789 14.8574 39.2063 14.8709 39.2357 14.8907C39.2651 14.9105 39.2904 14.9323 39.3106 14.9536C39.3518 14.9969 39.3543 15.0186 39.3399 14.9832C39.3243 14.9448 39.2968 14.8584 39.278 14.7079L37.2934 14.956L35.3089 15.2041C35.4128 16.0355 35.7066 16.9686 36.4123 17.7104C37.1629 18.4995 38.161 18.844 39.1974 18.844V16.844ZM37.2934 14.956L39.278 14.7079C38.9778 12.3068 38.9797 7.77249 39.2609 5.59637L37.2774 5.34L35.2939 5.08363C34.9672 7.6115 34.969 12.4852 35.3089 15.2041L37.2934 14.956ZM42.8481 5.372L44.8316 5.62837L44.8318 5.62633L42.8481 5.372ZM46.3841 4.684L47.9099 3.39096L47.9048 3.38493L47.8996 3.37895L46.3841 4.684ZM49.8401 9.58L48.0763 10.523L48.6415 11.58H49.8401V9.58ZM49.9201 9.58V11.58H51.9561L51.9197 9.54429L49.9201 9.58ZM50.0161 5.372L51.9982 5.63883L51.9998 5.62633L50.0161 5.372ZM53.7121 5.372L51.7317 5.65129L51.7319 5.65288L53.7121 5.372ZM53.6961 14.988L55.6806 15.2361L55.6806 15.2361L53.6961 14.988ZM52.1441 16.844L52.1113 14.8443L52.1049 14.8444L52.1441 16.844ZM50.2401 15.932L51.6543 14.5178L51.6543 14.5178L50.2401 15.932ZM46.7041 10.94L48.4573 9.97768L47.8878 8.94H46.7041V10.94ZM46.6241 10.94V8.94H44.5688L44.6248 10.9945L46.6241 10.94ZM46.5121 14.988L44.5286 14.7309L44.5275 14.7399L46.5121 14.988ZM42.8641 14.988L44.8486 14.7399L44.8486 14.7399L42.8641 14.988ZM42.8481 5.372L44.8318 5.62633C44.8513 5.47469 44.8787 5.41157 44.8809 5.40668C44.8817 5.40507 44.8761 5.41755 44.8608 5.43902C44.8452 5.46081 44.8223 5.48796 44.7913 5.51633C44.7247 5.57724 44.6526 5.61463 44.598 5.63312C44.549 5.64966 44.5357 5.644 44.5761 5.644V3.644V1.644C43.7702 1.644 42.8513 1.87046 42.0928 2.56366C41.3431 3.24885 40.9851 4.17556 40.8643 5.11767L42.8481 5.372ZM44.5761 3.644V5.644C44.5859 5.644 44.5694 5.64468 44.5397 5.63546C44.5113 5.62663 44.4985 5.61732 44.5068 5.62276C44.5187 5.6305 44.5542 5.65583 44.6182 5.71759C44.6838 5.78089 44.7624 5.8658 44.8685 5.98905L46.3841 4.684L47.8996 3.37895C47.3525 2.74366 46.3377 1.644 44.5761 1.644V3.644ZM46.3841 4.684L44.8583 5.97704C45.6278 6.88507 47.3123 9.09395 48.0763 10.523L49.8401 9.58L51.6038 8.63701C50.6398 6.83405 48.7403 4.37093 47.9099 3.39096L46.3841 4.684ZM49.8401 9.58V11.58H49.9201V9.58V7.58H49.8401V9.58ZM49.9201 9.58L51.9197 9.54429C51.8872 7.72386 51.91 6.29422 51.9982 5.63882L50.0161 5.372L48.0339 5.10517C47.8982 6.11378 47.8889 7.85214 47.9204 9.61571L49.9201 9.58ZM50.0161 5.372L51.9998 5.62633C52.0152 5.50646 52.038 5.46641 52.0329 5.4764C52.0305 5.48119 52.0228 5.49515 52.0076 5.5144C51.9924 5.53375 51.9728 5.5544 51.9492 5.57415C51.8997 5.61553 51.854 5.63546 51.8302 5.64307C51.8097 5.64967 51.8158 5.644 51.8561 5.644V3.644V1.644C51.0607 1.644 50.1513 1.86319 49.383 2.50585C48.5959 3.16412 48.1636 4.09364 48.0323 5.11767L50.0161 5.372ZM51.8561 3.644V5.644C51.8961 5.644 51.9026 5.64962 51.8828 5.64329C51.8599 5.63595 51.8164 5.61691 51.7695 5.57796C51.7472 5.55944 51.729 5.54032 51.7151 5.52285C51.7012 5.50548 51.6947 5.49353 51.6933 5.49083C51.6903 5.48507 51.7144 5.52884 51.7317 5.65129L53.7121 5.372L55.6925 5.09271C55.5489 4.07483 55.1109 3.15403 54.3266 2.50204C53.559 1.86387 52.6529 1.644 51.8561 1.644V3.644ZM53.7121 5.372L51.7319 5.65288C52.0232 7.70668 52.0132 12.3265 51.7115 14.7399L53.6961 14.988L55.6806 15.2361C56.0189 12.5295 56.0409 7.54932 55.6922 5.09112L53.7121 5.372ZM53.6961 14.988L51.7115 14.7399C51.687 14.936 51.6565 15.0584 51.6337 15.1262C51.6112 15.1935 51.6078 15.1725 51.655 15.1121C51.71 15.0414 51.8026 14.9579 51.9261 14.8998C52.0434 14.8445 52.1207 14.8441 52.1113 14.8443L52.1441 16.844L52.1768 18.8437C53.2019 18.8269 54.1495 18.4178 54.8092 17.5719C55.3829 16.8363 55.5909 15.9539 55.6806 15.2361L53.6961 14.988ZM52.1441 16.844L52.1049 14.8444C51.9689 14.847 51.9271 14.8396 51.9328 14.8405C51.953 14.8439 51.9974 14.8554 52.0419 14.877C52.0772 14.8941 52.0692 14.8971 52.002 14.8424C51.9297 14.7836 51.8232 14.6867 51.6543 14.5178L50.2401 15.932L48.8258 17.3462C49.2136 17.734 49.6879 18.1805 50.2943 18.475C50.9751 18.8057 51.6212 18.8546 52.1833 18.8436L52.1441 16.844ZM50.2401 15.932L51.6543 14.5178C51.1265 13.99 49.5542 11.9761 48.4573 9.97768L46.7041 10.94L44.9508 11.9023C46.1899 14.1599 47.9776 16.498 48.8258 17.3462L50.2401 15.932ZM46.7041 10.94V8.94H46.6241V10.94V12.94H46.7041V10.94ZM46.6241 10.94L44.6248 10.9945C44.6718 12.7161 44.6209 14.0196 44.5287 14.7309L46.5121 14.988L48.4955 15.2451C48.6273 14.2284 48.6724 12.6839 48.6233 10.8855L46.6241 10.94ZM46.5121 14.988L44.5275 14.7399C44.507 14.904 44.4789 14.995 44.4639 15.0332C44.4503 15.0678 44.4569 15.0357 44.509 14.9801C44.5346 14.9528 44.5662 14.9253 44.6024 14.901C44.6386 14.8766 44.672 14.8604 44.698 14.8503C44.7503 14.8301 44.7484 14.844 44.6561 14.844V16.844V18.844C45.6705 18.844 46.6728 18.5206 47.4271 17.7159C48.1279 16.9684 48.3969 16.0337 48.4966 15.2361L46.5121 14.988ZM44.6561 16.844V14.844C44.5629 14.844 44.5729 14.8299 44.6418 14.8572C44.6764 14.871 44.7183 14.8923 44.7622 14.9231C44.806 14.9539 44.8429 14.9878 44.8719 15.0204C44.9296 15.0855 44.9351 15.1212 44.9186 15.0762C44.9009 15.0278 44.8716 14.9235 44.8486 14.7399L42.8641 14.988L40.8795 15.2361C40.9729 15.9836 41.2073 16.9173 41.8802 17.6756C42.6257 18.5155 43.6364 18.844 44.6561 18.844V16.844ZM42.8641 14.988L44.8486 14.7399C44.5485 12.3388 44.5503 7.80449 44.8316 5.62837L42.8481 5.372L40.8646 5.11563C40.5378 7.6435 40.5397 12.5172 40.8795 15.2361L42.8641 14.988ZM65.4819 4.732L64.3042 6.34851L64.3155 6.35665L65.4819 4.732ZM65.9619 7.02L67.7371 7.94129L67.7388 7.93804L65.9619 7.02ZM63.4659 7.98L62.6781 9.81829L62.6781 9.81829L63.4659 7.98ZM63.5299 12.428L65.0042 13.7794L65.5299 13.206V12.428H63.5299ZM63.5299 11.852H65.5299V9.6784L63.3638 9.85891L63.5299 11.852ZM62.6019 11.82L62.85 9.83543L62.8416 9.83441L62.6019 11.82ZM62.6499 9.02L62.4476 7.03026L62.4441 7.03062L62.6499 9.02ZM65.6259 9.084L65.9547 7.11117L65.9419 7.10912L65.6259 9.084ZM67.0499 10.636L69.0458 10.5072L69.0455 10.503L67.0499 10.636ZM66.5219 14.62L68.186 15.7294L68.186 15.7294L66.5219 14.62ZM55.0659 10.252H57.0659C57.0659 8.46469 57.5903 7.3892 58.2592 6.75037C58.9438 6.09664 60.0483 5.644 61.6899 5.644V3.644V1.644C59.3316 1.644 57.1241 2.30336 55.4966 3.85763C53.8535 5.4268 53.0659 7.65531 53.0659 10.252H55.0659ZM61.6899 3.644V5.644C62.7785 5.644 63.6408 5.8651 64.3042 6.34847L65.4819 4.732L66.6597 3.11553C65.0831 1.9669 63.2894 1.644 61.6899 1.644V3.644ZM65.4819 4.732L64.3155 6.35665C64.275 6.32755 64.2296 6.27586 64.2075 6.19202C64.1961 6.14835 64.195 6.10901 64.1982 6.08169C64.2015 6.05446 64.2065 6.06055 64.1851 6.10196L65.9619 7.02L67.7388 7.93804C68.7242 6.03082 68.017 4.08998 66.6484 3.10735L65.4819 4.732ZM65.9619 7.02L64.1868 6.09871C64.1226 6.22237 64.0835 6.24952 64.0993 6.23593C64.1065 6.22973 64.1221 6.21777 64.1462 6.20484C64.1703 6.19193 64.1969 6.18128 64.224 6.17371C64.2791 6.15832 64.3139 6.16158 64.3163 6.16184C64.3172 6.16194 64.3116 6.16136 64.2997 6.15812C64.2879 6.15487 64.2722 6.14961 64.2538 6.14171L63.4659 7.98L62.6781 9.81829C63.3651 10.1127 64.3025 10.3049 65.2999 10.0263C66.3574 9.73095 67.1946 8.9867 67.7371 7.94129L65.9619 7.02ZM63.4659 7.98L64.2538 6.14171C63.7996 5.94705 62.8897 5.532 61.6259 5.532V7.532V9.532C61.9942 9.532 62.2363 9.62895 62.6781 9.81829L63.4659 7.98ZM61.6259 7.532V5.532C60.5401 5.532 59.3541 5.86146 58.4351 6.76849C57.505 7.68642 57.0979 8.9486 57.0979 10.316H59.0979H61.0979C61.0979 10.0199 61.1411 9.83892 61.1767 9.74131C61.2101 9.64944 61.2402 9.62008 61.2448 9.61551C61.2506 9.60978 61.2681 9.5933 61.3194 9.57489C61.3753 9.55483 61.4746 9.532 61.6259 9.532V7.532ZM59.0979 10.316H57.0979C57.0979 11.724 57.55 12.9799 58.4934 13.8749C59.4118 14.7462 60.5777 15.068 61.6259 15.068V13.068V11.068C61.3622 11.068 61.2641 10.9898 61.2465 10.9731C61.2359 10.963 61.2065 10.933 61.175 10.8512C61.1416 10.7644 61.0979 10.597 61.0979 10.316H59.0979ZM61.6259 13.068V15.068C62.859 15.068 64.1372 14.7253 65.0042 13.7794L63.5299 12.428L62.0556 11.0766C62.1395 10.985 62.1894 10.9824 62.1235 11.0056C62.0572 11.0289 61.9001 11.068 61.6259 11.068V13.068ZM63.5299 12.428H65.5299V11.852H63.5299H61.5299V12.428H63.5299ZM63.5299 11.852L63.3638 9.85891C63.3941 9.85638 63.3895 9.85808 63.3334 9.85826C63.2866 9.85841 63.226 9.85748 63.1581 9.85516C63.0098 9.8501 62.8929 9.84081 62.85 9.83544L62.6019 11.82L62.3539 13.8046C62.7091 13.849 63.3324 13.8754 63.696 13.8451L63.5299 11.852ZM62.6019 11.82L62.8416 9.83441C62.6716 9.81389 62.8155 9.79096 63.0043 9.98638C63.0969 10.0822 63.1594 10.191 63.1943 10.289C63.227 10.3807 63.2259 10.4351 63.2259 10.428H61.2259H59.2259C59.2259 11.2125 59.4604 12.075 60.1276 12.7656C60.7723 13.433 61.6043 13.7141 62.3623 13.8056L62.6019 11.82ZM61.2259 10.428H63.2259C63.2259 10.401 63.23 10.4528 63.1938 10.5505C63.1545 10.6568 63.0834 10.774 62.98 10.874C62.7803 11.067 62.6408 11.0316 62.8557 11.0094L62.6499 9.02L62.4441 7.03062C61.7311 7.10438 60.8796 7.34097 60.1999 7.99802C59.4775 8.69631 59.2259 9.59764 59.2259 10.428H61.2259ZM62.6499 9.02L62.8523 11.0097C63.6396 10.9297 64.6965 10.9607 65.31 11.0589L65.6259 9.084L65.9419 7.10912C64.9553 6.95127 63.5483 6.91833 62.4476 7.03026L62.6499 9.02ZM65.6259 9.084L65.2971 11.0568C65.4748 11.0864 65.3544 11.1049 65.1952 10.9391C65.1185 10.8592 65.0752 10.7787 65.0554 10.7272C65.0384 10.6829 65.0489 10.687 65.0544 10.769L67.0499 10.636L69.0455 10.503C68.9919 9.69947 68.7351 8.85062 68.0807 8.16894C67.4415 7.50307 66.6411 7.2256 65.9547 7.11121L65.6259 9.084ZM67.0499 10.636L65.0541 10.7648C65.0965 11.4214 65.0903 12.1043 65.0264 12.6753C64.9533 13.3271 64.8349 13.545 64.8578 13.5106L66.5219 14.62L68.186 15.7294C68.721 14.927 68.9145 13.8969 69.0015 13.1207C69.0975 12.2637 69.0994 11.3386 69.0458 10.5072L67.0499 10.636ZM66.5219 14.62L64.8578 13.5106C64.5482 13.975 63.4007 14.844 61.7539 14.844V16.844V18.844C64.6512 18.844 67.0876 17.377 68.186 15.7294L66.5219 14.62ZM61.7539 16.844V14.844C60.1078 14.844 58.9807 14.3926 58.2786 13.7337C57.5974 13.0943 57.0659 12.025 57.0659 10.252H55.0659H53.0659C53.0659 12.863 53.8785 15.0897 55.5412 16.6503C57.1832 18.1914 59.4001 18.844 61.7539 18.844V16.844ZM68.4428 5.34L70.4263 5.59637L70.4266 5.59433L68.4428 5.34ZM72.2508 5.34L70.2741 5.64411L70.2745 5.64667L72.2508 5.34ZM72.4108 12.748L70.4263 12.4999L70.1079 15.0465L72.6551 14.733L72.4108 12.748ZM76.4268 12.86L76.1136 14.8354L76.1248 14.8371L76.4268 12.86ZM76.4108 16.7L76.1661 14.715L76.1605 14.7157L76.4108 16.7ZM70.5228 16.7L70.2514 18.6815L70.2598 18.6826L70.5228 16.7ZM68.4588 14.78L66.4856 15.1065L66.486 15.1088L68.4588 14.78ZM68.4428 5.34L70.4266 5.59433C70.4395 5.49369 70.4581 5.47248 70.4446 5.49754C70.4382 5.50924 70.4269 5.52727 70.4092 5.54817C70.3915 5.56904 70.3711 5.58843 70.3495 5.60516C70.3053 5.63942 70.2725 5.64999 70.2695 5.65086C70.2689 5.65104 70.2937 5.644 70.3468 5.644V3.644V1.644C69.586 1.644 68.6826 1.83675 67.9001 2.44284C67.0796 3.07835 66.5969 4.01069 66.459 5.08567L68.4428 5.34ZM70.3468 3.644V5.644C70.3996 5.644 70.4198 5.65095 70.4132 5.64896C70.4037 5.64611 70.3676 5.63305 70.3232 5.59823C70.3018 5.5815 70.2831 5.56317 70.2677 5.54498C70.2524 5.52683 70.2439 5.51291 70.2407 5.50691C70.2336 5.49402 70.2564 5.52917 70.2741 5.64411L72.2508 5.34L74.2276 5.03589C74.0677 3.99659 73.5969 3.08176 72.7904 2.44977C72.0117 1.83952 71.113 1.644 70.3468 1.644V3.644ZM72.2508 5.34L70.2745 5.64667C70.3974 6.43914 70.4837 7.79953 70.5112 9.20321C70.5389 10.6166 70.5033 11.8835 70.4263 12.4999L72.4108 12.748L74.3954 12.9961C74.5103 12.0765 74.5387 10.5674 74.5104 9.12479C74.482 7.67247 74.3922 6.09686 74.2272 5.03332L72.2508 5.34ZM72.4108 12.748L72.6551 14.733C73.4891 14.6304 74.9643 14.6531 76.1137 14.8353L76.4268 12.86L76.74 10.8847C75.2653 10.6509 73.4125 10.6096 72.1665 10.763L72.4108 12.748ZM76.4268 12.86L76.1248 14.8371C76.2899 14.8623 76.3796 14.8929 76.4164 14.9085C76.4491 14.9224 76.418 14.9149 76.3658 14.8633C76.3403 14.8382 76.3155 14.8081 76.2941 14.7747C76.2727 14.7414 76.2593 14.7119 76.2515 14.6909C76.2361 14.6492 76.2508 14.6621 76.2508 14.764H78.2508H80.2508C80.2508 13.7738 79.9513 12.7822 79.1759 12.0167C78.449 11.2991 77.5274 11.0049 76.7289 10.8829L76.4268 12.86ZM78.2508 14.764H76.2508C76.2508 14.8657 76.2361 14.8883 76.2465 14.8597C76.2517 14.8453 76.2618 14.822 76.2792 14.7941C76.2968 14.7659 76.318 14.739 76.3413 14.7152C76.3644 14.6917 76.3849 14.676 76.3986 14.6669C76.4119 14.658 76.4159 14.6573 76.4059 14.6616C76.3837 14.671 76.3108 14.6972 76.1661 14.715L76.4108 16.7L76.6555 18.685C77.5212 18.5782 78.4647 18.2623 79.1963 17.5168C79.9566 16.742 80.2508 15.7465 80.2508 14.764H78.2508ZM76.4108 16.7L76.1605 14.7157C74.5515 14.9187 72.18 14.9023 70.7858 14.7174L70.5228 16.7L70.2598 18.6826C72.0016 18.9137 74.7182 18.9293 76.6611 18.6843L76.4108 16.7ZM70.5228 16.7L70.7943 14.7185C70.4876 14.6765 70.4389 14.6035 70.4736 14.6352C70.488 14.6484 70.4914 14.658 70.4853 14.6458C70.4772 14.6297 70.4518 14.5724 70.4316 14.4512L68.4588 14.78L66.486 15.1088C66.6399 16.032 67.035 16.9119 67.7761 17.5888C68.5028 18.2525 69.39 18.5635 70.2514 18.6815L70.5228 16.7ZM68.4588 14.78L70.432 14.4535C70.1041 12.4717 70.14 7.81158 70.4263 5.59637L68.4428 5.34L66.4593 5.08363C66.1376 7.57242 66.0776 12.6403 66.4856 15.1065L68.4588 14.78ZM87.7427 13.196L87.4225 15.1702L87.4343 15.1721L87.446 15.1739L87.7427 13.196ZM87.7267 16.636L88.0979 18.6012L88.1084 18.5993L88.1189 18.5972L87.7267 16.636ZM81.2627 16.764L81.0718 18.7549L81.0816 18.7558L81.2627 16.764ZM79.2947 14.828L81.2675 14.4992L81.2667 14.4943L79.2947 14.828ZM79.2787 5.628L77.2945 5.37712L77.2941 5.37993L79.2787 5.628ZM81.2627 3.708L81.4871 5.69538L81.4919 5.69482L81.2627 3.708ZM87.6947 3.852L87.2974 5.81214L87.3025 5.81316L87.6947 3.852ZM87.6947 7.276L87.3025 5.31483L87.297 5.31594L87.6947 7.276ZM83.1507 7.372L83.3914 5.38653L81.0861 5.10711L81.1515 7.42832L83.1507 7.372ZM83.1827 8.508L81.1835 8.56432L81.2425 10.6591L83.3323 10.5024L83.1827 8.508ZM86.8467 8.508L87.0457 6.5179L87.035 6.51689L86.8467 8.508ZM86.8467 11.948L86.6477 9.95792L86.6452 9.95818L86.8467 11.948ZM83.1667 11.98L83.3241 9.9862L81.2548 9.82284L81.1684 11.8967L83.1667 11.98ZM83.1187 13.132L81.1204 13.0487L81.0189 15.4858L83.4286 15.1078L83.1187 13.132ZM87.7427 13.196L87.446 15.1739C87.5094 15.1834 87.5265 15.1915 87.5136 15.1865C87.4972 15.1802 87.431 15.1518 87.352 15.0803C87.2659 15.0023 87.2069 14.9109 87.1766 14.835C87.1497 14.7676 87.1667 14.7659 87.1667 14.876H89.1667H91.1667C91.1667 13.7939 90.81 12.8155 90.0374 12.1157C89.3362 11.4806 88.5229 11.2907 88.0394 11.2181L87.7427 13.196ZM89.1667 14.876H87.1667C87.1667 14.9875 87.1496 14.9939 87.1718 14.9377C87.1826 14.9103 87.2002 14.8749 87.2266 14.8361C87.2529 14.7974 87.2832 14.7625 87.3147 14.7328C87.3776 14.6735 87.4273 14.6515 87.4312 14.6499C87.432 14.6495 87.4049 14.6607 87.3345 14.6748L87.7267 16.636L88.1189 18.5972C88.5918 18.5026 89.3815 18.2817 90.0587 17.6432C90.8025 16.9419 91.1667 15.9739 91.1667 14.876H89.1667ZM87.7267 16.636L87.3555 14.6708C86.8279 14.7704 85.7244 14.8361 84.4605 14.8501C83.2308 14.8638 82.051 14.8274 81.4438 14.7722L81.2627 16.764L81.0816 18.7558C81.8824 18.8286 83.2146 18.8642 84.5049 18.8499C85.761 18.8359 87.1855 18.7736 88.0979 18.6012L87.7267 16.636ZM81.2627 16.764L81.4536 14.7731C81.3333 14.7616 81.2846 14.7411 81.2817 14.7399C81.2804 14.7393 81.2875 14.7423 81.2995 14.7505C81.3117 14.7587 81.3243 14.7691 81.3356 14.7805C81.3917 14.8373 81.3197 14.8124 81.2675 14.4992L79.2947 14.828L77.3219 15.1568C77.4617 15.9956 77.7897 16.8827 78.4898 17.5915C79.2098 18.3205 80.1287 18.6644 81.0718 18.7549L81.2627 16.764ZM79.2947 14.828L81.2667 14.4943C81.1214 13.6362 81.0467 12.0281 81.0527 10.2708C81.0586 8.53643 81.1418 6.84801 81.2632 5.87607L79.2787 5.628L77.2941 5.37993C77.1436 6.58399 77.0588 8.45557 77.0527 10.2572C77.0467 12.0359 77.1159 13.9398 77.3227 15.1617L79.2947 14.828ZM79.2787 5.628L81.2629 5.87888C81.2846 5.70752 81.3164 5.64271 81.3168 5.64182C81.3169 5.64171 81.3111 5.65327 81.297 5.67128C81.2827 5.68946 81.2652 5.70767 81.2459 5.72372C81.2058 5.75723 81.1854 5.75919 81.2192 5.74738C81.2581 5.73375 81.3405 5.71192 81.4871 5.69537L81.2627 3.708L81.0383 1.72063C80.3608 1.79712 79.4618 2.00289 78.6835 2.65228C77.8575 3.34135 77.43 4.30533 77.2945 5.37712L79.2787 5.628ZM81.2627 3.708L81.4919 5.69482C81.7579 5.66413 82.9385 5.63548 84.3201 5.65382C85.7309 5.67255 86.9264 5.73694 87.2974 5.81214L87.6947 3.852L88.092 1.89186C87.279 1.72706 85.6745 1.67145 84.3732 1.65418C83.0429 1.63652 81.5995 1.65587 81.0334 1.72118L81.2627 3.708ZM87.6947 3.852L87.3025 5.81316C87.4092 5.83451 87.4574 5.84999 87.4754 5.85694C87.4904 5.8627 87.4419 5.84667 87.3717 5.78675C87.3357 5.75601 87.2982 5.7172 87.2637 5.67066C87.2289 5.62385 87.2036 5.57782 87.1864 5.53752C87.1513 5.4549 87.1667 5.43583 87.1667 5.532H89.1667H91.1667C91.1667 4.40444 90.7663 3.42575 89.9697 2.74525C89.2742 2.15117 88.4775 1.96896 88.0869 1.89084L87.6947 3.852ZM89.1667 5.532H87.1667C87.1667 5.63444 87.1505 5.63012 87.1776 5.56435C87.1907 5.53252 87.2108 5.49427 87.2394 5.45408C87.2678 5.41409 87.2993 5.37963 87.3305 5.35146C87.392 5.29592 87.4366 5.27871 87.4301 5.2814C87.4211 5.28512 87.3842 5.29849 87.3025 5.31484L87.6947 7.276L88.0869 9.23716C88.5339 9.14777 89.3248 8.93993 90.0109 8.32054C90.7762 7.62965 91.1667 6.65591 91.1667 5.532H89.1667ZM87.6947 7.276L87.297 5.31594C86.9373 5.38892 86.2209 5.4445 85.377 5.45619C84.5523 5.46762 83.7926 5.43517 83.3914 5.38653L83.1507 7.372L82.91 9.35747C83.5648 9.43683 84.5251 9.46838 85.4324 9.45581C86.3205 9.4435 87.3481 9.38708 88.0924 9.23606L87.6947 7.276ZM83.1507 7.372L81.1515 7.42832L81.1835 8.56432L83.1827 8.508L85.1819 8.45168L85.1499 7.31568L83.1507 7.372ZM83.1827 8.508L83.3323 10.5024C84.5371 10.412 85.6187 10.4008 86.6583 10.4991L86.8467 8.508L87.035 6.51689C85.7067 6.39123 84.3882 6.41197 83.0331 6.5136L83.1827 8.508ZM86.8467 8.508L86.6477 10.4981C86.6781 10.5011 86.6922 10.5061 86.6878 10.5046C86.6823 10.5026 86.6352 10.4853 86.5723 10.4328C86.5022 10.3742 86.4414 10.2954 86.4047 10.2127C86.3699 10.1343 86.3827 10.111 86.3827 10.188H88.3827H90.3827C90.3827 9.02224 89.9392 8.03342 89.137 7.36321C88.4153 6.76019 87.592 6.57256 87.0457 6.51793L86.8467 8.508ZM88.3827 10.188H86.3827C86.3827 10.2716 86.3689 10.2658 86.3935 10.2082C86.4194 10.1477 86.4645 10.0842 86.5211 10.0335C86.5724 9.98759 86.6142 9.96886 86.6287 9.9632C86.6414 9.95822 86.6455 9.95814 86.6477 9.95793L86.8467 11.948L87.0457 13.9381C87.6618 13.8765 88.486 13.6428 89.1883 13.0145C89.9519 12.3312 90.3827 11.3475 90.3827 10.188H88.3827ZM86.8467 11.948L86.6452 9.95818C85.5122 10.0729 84.4329 10.0737 83.3241 9.9862L83.1667 11.98L83.0093 13.9738C84.3325 14.0783 85.6532 14.0791 87.0482 13.9378L86.8467 11.948ZM83.1667 11.98L81.1684 11.8967L81.1204 13.0487L83.1187 13.132L85.117 13.2153L85.165 12.0633L83.1667 11.98ZM83.1187 13.132L83.4286 15.1078C83.6572 15.072 84.3695 15.0359 85.275 15.0439C86.1614 15.0517 86.9876 15.0997 87.4225 15.1702L87.7427 13.196L88.0628 11.2218C87.3138 11.1003 86.236 11.0523 85.3103 11.0441C84.4038 11.0361 83.3962 11.064 82.8088 11.1562L83.1187 13.132Z" fill="#C72489" mask="url(#path-2-outside-1_1013_5701)"/>
<defs>
<linearGradient id="paint0_linear_1013_5701" x1="2.3999" y1="1" x2="2.3999" y2="18.5" gradientUnits="userSpaceOnUse">
<stop offset="0.201923" stop-color="#C72489"/>
<stop offset="1" stop-color="#890958"/>
</linearGradient>
<linearGradient id="paint1_linear_1013_5701" x1="46.8773" y1="15.1875" x2="46.8773" y2="0.3125" gradientUnits="userSpaceOnUse">
<stop stop-color="#FFAADF"/>
<stop offset="0.615385" stop-color="white"/>
</linearGradient>
</defs>
</svg>
