<svg width="48" height="49" viewBox="0 0 48 49" fill="none" xmlns="http://www.w3.org/2000/svg">
<path d="M23.7038 2.5C22.1321 2.5 20.6248 3.12434 19.5135 4.23566C18.4022 5.34699 17.7778 6.85427 17.7778 8.42593V24.2284C17.7778 25.8 18.4022 27.3073 19.5135 28.4187C20.6248 29.53 22.1321 30.1543 23.7038 30.1543C25.2754 30.1543 26.7827 29.53 27.894 28.4187C29.0053 27.3073 29.6297 25.8 29.6297 24.2284V8.42593C29.6297 6.85427 29.0053 5.34699 27.894 4.23566C26.7827 3.12434 25.2754 2.5 23.7038 2.5Z" stroke="white" stroke-width="5" stroke-linecap="round" stroke-linejoin="round"/>
<path d="M37.5309 20.2778V24.2284C37.5309 27.8956 36.0741 31.4126 33.481 34.0057C30.8879 36.5988 27.3709 38.0556 23.7037 38.0556C20.0366 38.0556 16.5196 36.5988 13.9265 34.0057C11.3334 31.4126 9.87659 27.8956 9.87659 24.2284V20.2778" stroke="white" stroke-width="5" stroke-linecap="round" stroke-linejoin="round"/>
<path d="M23.7037 38.0556V45.9568" stroke="white" stroke-width="5" stroke-linecap="round" stroke-linejoin="round"/>
<path d="M15.8025 45.9568H31.605" stroke="white" stroke-width="5" stroke-linecap="round" stroke-linejoin="round"/>
</svg>
