<svg width="40" height="40" viewBox="0 0 40 40" fill="none" xmlns="http://www.w3.org/2000/svg">
<g clip-path="url(#clip0_676_4986)">
<path d="M1.66669 6.66663V16.6666H11.6667" stroke="white" stroke-width="6" stroke-linecap="round" stroke-linejoin="round"/>
<path d="M5.85002 25C6.93068 28.0673 8.97891 30.7003 11.6861 32.5023C14.3933 34.3042 17.6128 35.1776 20.8595 34.9907C24.1063 34.8039 27.2043 33.5669 29.6869 31.4662C32.1695 29.3655 33.9021 26.5149 34.6237 23.3439C35.3453 20.1729 35.0168 16.8532 33.6877 13.8851C32.3586 10.917 30.1009 8.46128 27.2547 6.8879C24.4086 5.31451 21.1282 4.70873 17.9078 5.16182C14.6874 5.61491 11.7015 7.10232 9.40002 9.39996L1.66669 16.6666" stroke="white" stroke-width="6" stroke-linecap="round" stroke-linejoin="round"/>
</g>
<defs>
<clipPath id="clip0_676_4986">
<rect width="40" height="40" fill="white"/>
</clipPath>
</defs>
</svg>
