<svg width="55" height="53" viewBox="0 0 55 53" fill="none" xmlns="http://www.w3.org/2000/svg">
<g filter="url(#filter0_d_1016_5693)">
<path d="M24.1408 3.19599C25.7169 0.7582 29.2831 0.758202 30.8592 3.19599L36.7529 12.3126C37.2927 13.1475 38.124 13.7514 39.0848 14.0068L49.5765 16.7949C52.3819 17.5405 53.484 20.9322 51.6525 23.1844L44.8034 31.6069C44.1762 32.3782 43.8586 33.3554 43.9127 34.3481L44.5031 45.1879C44.661 48.0865 41.7758 50.1827 39.0679 49.1368L28.9411 45.2256C28.0138 44.8674 26.9862 44.8674 26.0589 45.2256L15.9321 49.1368C13.2242 50.1827 10.339 48.0865 10.4969 45.1879L11.0873 34.3481C11.1414 33.3554 10.8238 32.3782 10.1966 31.6069L3.34748 23.1844C1.51601 20.9322 2.61806 17.5405 5.42355 16.7949L15.9152 14.0068C16.876 13.7514 17.7073 13.1475 18.2471 12.3126L24.1408 3.19599Z" fill="url(#paint0_linear_1016_5693)"/>
<path d="M23.7207 2.9248C25.4937 0.182288 29.5063 0.182289 31.2793 2.9248L37.1729 12.041C37.6451 12.7714 38.3723 13.3 39.2129 13.5234L49.7051 16.3115C52.8611 17.1504 54.1004 20.9663 52.04 23.5L45.1914 31.9219C44.6426 32.5968 44.3648 33.4527 44.4121 34.3213L45.002 45.1611C45.1793 48.4218 41.934 50.78 38.8877 49.6035L28.7607 45.6924C27.9493 45.379 27.0507 45.379 26.2393 45.6924L16.1123 49.6035C13.066 50.78 9.82072 48.4218 9.99805 45.1611L10.5879 34.3213C10.6352 33.4527 10.3574 32.5968 9.80859 31.9219L2.95996 23.5C0.899597 20.9663 2.13887 17.1504 5.29492 16.3115L15.7871 13.5234C16.6277 13.3 17.3549 12.7714 17.8271 12.041L23.7207 2.9248Z" stroke="#E31970"/>
</g>
<defs>
<filter id="filter0_d_1016_5693" x="0.447632" y="0.367676" width="54.1049" height="52.0432" filterUnits="userSpaceOnUse" color-interpolation-filters="sRGB">
<feFlood flood-opacity="0" result="BackgroundImageFix"/>
<feColorMatrix in="SourceAlpha" type="matrix" values="0 0 0 0 0 0 0 0 0 0 0 0 0 0 0 0 0 0 127 0" result="hardAlpha"/>
<feOffset dy="1"/>
<feGaussianBlur stdDeviation="0.5"/>
<feComposite in2="hardAlpha" operator="out"/>
<feColorMatrix type="matrix" values="0 0 0 0 0 0 0 0 0 0 0 0 0 0 0 0 0 0 0.5 0"/>
<feBlend mode="normal" in2="BackgroundImageFix" result="effect1_dropShadow_1016_5693"/>
<feBlend mode="normal" in="SourceGraphic" in2="effect1_dropShadow_1016_5693" result="shape"/>
</filter>
<linearGradient id="paint0_linear_1016_5693" x1="27.5" y1="-2" x2="27.5" y2="27.5" gradientUnits="userSpaceOnUse">
<stop stop-color="#FFD8E9"/>
<stop offset="1" stop-color="#FE338A"/>
</linearGradient>
</defs>
</svg>
